<?xml version="1.0" encoding="utf-8"?>
<!-- Generator: Adobe Illustrator 25.0.1, SVG Export Plug-In . SVG Version: 6.00 Build 0)  -->
<svg version="1.1" id="Layer_1" xmlns="http://www.w3.org/2000/svg" xmlns:xlink="http://www.w3.org/1999/xlink" x="0px" y="0px"
	 width="54.7px" height="72px" viewBox="0 0 54.7 72" style="enable-background:new 0 0 54.7 72;" xml:space="preserve">
<style type="text/css">
	.st0{fill-rule:evenodd;clip-rule:evenodd;fill:none;stroke:#DAA900;stroke-width:2.6182;stroke-miterlimit:10;}
</style>
<g>
	<path class="st0" d="M27.8,3.7c13.3,0,24.1,10.8,24.1,23.9c0,10.8-8.2,19.4-14.3,27.6L28,67.5c-0.1,0.1-0.3,0.1-0.4,0l-9.4-12.3
		C12,47,3.9,38.4,3.9,27.6C3.9,14.5,14.7,3.7,27.8,3.7z M27.8,17.7c5.6,0,10.1,4.5,10.1,9.9c0,5.6-4.5,10.1-10.1,10.1
		c-5.4,0-9.9-4.5-9.9-10.1C17.9,22.2,22.4,17.7,27.8,17.7z"/>
</g>
</svg>
