<?xml version="1.0" encoding="utf-8"?>
<!-- Generator: Adobe Illustrator 25.0.1, SVG Export Plug-In . SVG Version: 6.00 Build 0)  -->
<svg version="1.1" id="Layer_1" xmlns="http://www.w3.org/2000/svg" xmlns:xlink="http://www.w3.org/1999/xlink" x="0px" y="0px"
	 width="182.6px" height="31.2px" viewBox="0 0 182.6 31.2" style="enable-background:new 0 0 182.6 31.2;" xml:space="preserve">
<style type="text/css">
	.st0{fill-rule:evenodd;clip-rule:evenodd;}
	.st1{fill:#910028;}
</style>
<polygon points="34,29.9 37.6,29.9 37.6,17.4 37.7,17.4 42,29.9 45.1,29.9 49.4,17.3 49.5,17.3 49.5,29.9 53.1,29.9 53.1,12.1 
	47.6,12.1 43.7,24.4 43.6,24.4 39.5,12.1 34,12.1 34,29.9 "/>
<path class="st0" d="M62.7,24.9c0,0.8-0.1,3-2.9,3c-1.1,0-2.2-0.3-2.2-1.6c0-1.3,1-1.7,2.1-1.9c1.1-0.2,2.3-0.2,2.9-0.7V24.9
	L62.7,24.9z M58.1,21c0.1-1.4,1-1.9,2.3-1.9c1.2,0,2.3,0.2,2.3,1.7c0,1.4-2,1.4-4.2,1.7c-2.2,0.3-4.4,1-4.4,3.9
	c0,2.6,1.9,3.9,4.4,3.9c1.6,0,3.2-0.4,4.3-1.6c0,0.4,0.1,0.8,0.2,1.2h3.6c-0.3-0.5-0.4-1.7-0.4-2.9v-6.7c0-3.1-3.1-3.7-5.7-3.7
	c-2.9,0-5.9,1-6.1,4.3H58.1L58.1,21z"/>
<path d="M68,29.9h3.5v-5.8c0-2.3,0.9-4.1,3.5-4.1c0.4,0,0.9,0.1,1.3,0.1v-3.3c-0.2-0.1-0.5-0.1-0.8-0.1c-1.7,0-3.5,1.1-4.1,2.7h0V17
	H68V29.9L68,29.9z"/>
<polygon points="77.3,29.9 80.8,29.9 80.8,25.5 82.2,24.2 85.7,29.9 90,29.9 84.6,21.8 89.5,17 85.3,17 80.8,21.7 80.8,12.1 
	77.3,12.1 77.3,29.9 "/>
<path class="st0" d="M102,24.3c0.2-4-1.9-7.7-6.3-7.7c-3.9,0-6.6,2.9-6.6,6.8c0,4,2.5,6.8,6.6,6.8c2.9,0,5-1.3,6-4.3h-3.1
	c-0.2,0.8-1.4,1.7-2.8,1.7c-2,0-3.1-1-3.2-3.3H102L102,24.3z M92.7,22.1c0.1-1,0.7-2.7,2.9-2.7c1.7,0,2.5,0.9,2.8,2.7H92.7
	L92.7,22.1z"/>
<polygon points="103.5,29.9 107,29.9 107,12.1 103.5,12.1 103.5,29.9 "/>
<polygon points="110.4,29.9 112.1,29.9 112.1,21.3 122.7,21.3 122.7,29.9 124.4,29.9 124.4,12.1 122.7,12.1 122.7,19.9 112.1,19.9 
	112.1,12.1 110.4,12.1 110.4,29.9 "/>
<path class="st0" d="M132.1,16.7c-3.9,0-6.1,3.1-6.1,6.8c0,3.7,2.1,6.8,6.1,6.8c3.9,0,6.1-3.1,6.1-6.8
	C138.2,19.8,136.1,16.7,132.1,16.7L132.1,16.7z M132.1,18c3,0,4.5,2.7,4.5,5.5c0,2.7-1.5,5.5-4.5,5.5c-3,0-4.5-2.7-4.5-5.5
	C127.6,20.7,129.1,18,132.1,18L132.1,18z"/>
<path d="M139.3,29.9h1.6v-7.2c0-2.7,1.1-4.7,3.8-4.7c2,0,2.7,1.4,2.7,3.2v8.7h1.6v-7.3c0-2.4,0.8-4.6,3.5-4.6c2.2,0,3,1.1,3,3.3v8.7
	h1.6v-8.7c0-3-1.4-4.5-4.3-4.5c-1.7,0-3.3,0.8-4.1,2.5c-0.5-1.7-2-2.5-3.7-2.5c-2,0-3.4,1-4.2,2.5h-0.1v-2.2h-1.4V29.9L139.3,29.9z"
	/>
<path class="st0" d="M169.9,23.9c0.1-3.6-1.5-7.2-5.7-7.2c-4.1,0-5.8,3.4-5.8,6.8c0,3.7,1.7,6.8,5.8,6.8c3.2,0,4.9-1.7,5.6-4.6h-1.6
	c-0.5,1.9-1.7,3.3-4,3.3c-3,0-4.2-2.8-4.2-5.1H169.9L169.9,23.9z M160,22.6c0.2-2.3,1.7-4.6,4.2-4.6c2.5,0,4,2.2,4.1,4.6H160
	L160,22.6z"/>
<path d="M180.8,20.8c-0.1-2.8-2.1-4.1-4.7-4.1c-2.3,0-4.8,1-4.8,3.6c0,2.2,1.5,2.9,3.6,3.4l2,0.4c1.4,0.3,2.8,0.8,2.8,2.3
	c0,1.8-2,2.4-3.5,2.4c-2.1,0-3.7-1.1-3.8-3.2h-1.6c0.2,3.1,2.3,4.5,5.3,4.5c2.4,0,5.2-1.1,5.2-3.9c0-2.2-1.9-3.3-3.7-3.6l-2.1-0.5
	c-1.1-0.3-2.7-0.8-2.7-2.2c0-1.7,1.6-2.2,3-2.2c1.8,0,3.3,0.9,3.4,2.8H180.8L180.8,20.8z"/>
<path class="st1" d="M19,5.3l-8.6,8.6l0,11.9H6.1V15.5L17.6,4l-3.2-3.2L1.3,13.8v16.1h26.3l0-16.1L19,5.3L19,5.3z M22.9,25.8h-7.8
	l0-10.3l3.9-3.9l3.9,3.9V25.8L22.9,25.8z"/>
</svg>
