<?xml version="1.0" encoding="UTF-8"?>
<svg width="366px" height="65px" viewBox="0 0 366 65" version="1.1" xmlns="http://www.w3.org/2000/svg" xmlns:xlink="http://www.w3.org/1999/xlink">
    <title>true-custom</title>
    <defs>
        <polygon id="path-1" points="0 0 57.5788 0 57.5788 63.938 0 63.938"></polygon>
    </defs>
    <g id="Page-1" stroke="none" stroke-width="1" fill="none" fill-rule="evenodd">
        <g id="Artboard" transform="translate(-46.000000, -817.000000)">
            <g id="true-custom" transform="translate(46.000000, 817.000000)">
                <polygon id="Fill-1" fill="#FEFEFE" points="68.3034 21.9712 102.3394 21.9712 102.3394 26.9922 88.1524 26.9922 88.1524 63.8882 82.4904 63.8882 82.4904 26.9922 68.3034 26.9922"></polygon>
                <g id="Group-23">
                    <path d="M104.3225,63.8877 L99.1845,63.8877 L99.1845,33.3557 L104.0305,33.3557 L104.0305,38.4347 L104.1475,38.4347 C106.1905,34.8727 108.8765,32.4797 112.7295,32.4797 C113.3715,32.4797 113.6635,32.5377 114.0725,32.6547 L114.0725,37.9667 L112.1455,37.9667 C107.3585,37.9667 104.3225,41.7027 104.3225,46.1407 L104.3225,63.8877 Z" id="Fill-2" fill="#FEFEFE"></path>
                    <path d="M137.2468,63.8877 L137.2468,59.4507 L137.1298,59.3337 C134.9698,62.8957 132.3428,64.7637 127.4388,64.7637 C122.9438,64.7637 117.5148,62.6037 117.5148,55.3057 L117.5148,33.3557 L122.6518,33.3557 L122.6518,53.6137 C122.6518,58.6337 125.2208,60.3267 128.5488,60.3267 C135.0288,60.3267 136.9548,54.6057 136.9548,50.1687 L136.9548,33.3557 L142.0928,33.3557 L142.0928,63.8877 L137.2468,63.8877 Z" id="Fill-4" fill="#FEFEFE"></path>
                    <path d="M169.3542,46.1992 C169.0622,41.4702 167.0772,37.0922 160.8312,37.0922 C156.1022,37.0922 152.3652,41.4702 152.3652,46.1992 L169.3542,46.1992 Z M174.2582,54.3132 C174.0832,55.7732 172.6822,60.0932 168.8292,62.6622 C167.4282,63.5952 165.4422,64.7632 160.5392,64.7632 C151.9572,64.7632 146.8782,58.2832 146.8782,49.4682 C146.8782,40.0112 151.4312,32.4792 161.5312,32.4792 C170.3472,32.4792 174.6662,39.4852 174.6662,50.2852 L152.3652,50.2852 C152.3652,56.6482 155.3432,60.3272 161.2392,60.3272 C166.0852,60.3272 168.9452,56.5912 169.1212,54.3132 L174.2582,54.3132 Z" id="Fill-6" fill="#FEFEFE"></path>
                    <path d="M210.1013,34.0557 C208.4663,26.8747 204.0303,24.1317 196.8493,24.1317 C186.6913,24.1317 182.3123,32.8297 182.3123,42.7537 C182.3123,52.1537 185.7563,61.6117 197.2003,61.6117 C204.4383,61.6117 208.9343,56.7067 210.5103,50.0517 L214.6553,50.0517 C212.7873,58.1667 207.7073,64.9967 196.4403,64.9967 C183.4803,64.9967 178.3433,54.7807 178.3433,42.8707 C178.3433,26.8167 186.7493,20.7447 197.9003,20.7447 C206.5403,20.7447 212.8453,25.3577 214.1883,34.0557 L210.1013,34.0557 Z" id="Fill-8" fill="#008C96"></path>
                    <path d="M240.9236,33.6475 L244.4266,33.6475 L244.4266,63.8875 L240.9236,63.8875 L240.9236,59.6845 C239.0556,61.7865 236.4866,64.7055 231.1736,64.7055 C223.1166,64.7055 220.4316,59.8595 220.4316,53.5545 L220.4316,33.6475 L223.9346,33.6475 L223.9346,53.4965 C223.9346,58.6925 226.2116,61.5525 231.6986,61.5525 C237.4796,61.5525 240.9236,56.7655 240.9236,50.1105 L240.9236,33.6475 Z" id="Fill-10" fill="#008C96"></path>
                    <path d="M253.4734,54.4307 C254.5824,59.6257 257.2684,61.5527 262.5224,61.5527 C267.6014,61.5527 269.9944,58.8677 269.9944,55.9487 C269.9944,47.1917 250.6134,53.3797 250.6134,41.4697 C250.6134,36.4497 254.5244,32.8297 261.2384,32.8297 C267.7764,32.8297 272.0374,35.5157 272.9134,42.3457 L269.3524,42.3457 C268.7104,37.6747 265.5584,35.9827 261.1794,35.9827 C256.7434,35.9827 254.3494,38.0837 254.3494,41.1777 C254.3494,49.4097 273.7314,44.2727 273.7314,55.8897 C273.7314,61.6697 268.5354,64.7047 261.4124,64.7047 C254.2904,64.7047 250.2034,60.1517 249.9114,54.4307 L253.4734,54.4307 Z" id="Fill-12" fill="#008C96"></path>
                    <path d="M289.7839,64.0049 C288.9669,64.1799 287.4489,64.7049 285.7559,64.7049 C282.3109,64.7049 280.3849,63.1879 280.3849,58.6929 L280.3849,36.5669 L276.1229,36.5669 L276.1229,33.6479 L280.3849,33.6479 L280.3849,25.2409 L283.8879,25.2409 L283.8879,33.6479 L289.5509,33.6479 L289.5509,36.5669 L283.8879,36.5669 L283.8879,57.2909 C283.8879,60.2689 284.0049,61.5529 286.9239,61.5529 C287.8569,61.5529 288.8499,61.3779 289.7839,61.1449 L289.7839,64.0049 Z" id="Fill-14" fill="#008C96"></path>
                    <path d="M305.9548,35.9824 C298.5988,35.9824 295.6798,42.2284 295.6798,48.7674 C295.6798,56.2984 299.2408,61.5524 305.9548,61.5524 C313.3098,61.5524 316.2288,55.2484 316.2288,48.7674 C316.1718,41.6454 313.3688,35.9824 305.9548,35.9824 M291.9428,48.7674 C291.9428,39.9524 296.6138,32.8304 305.9548,32.8304 C315.4118,32.8304 319.9658,39.8934 319.9658,48.7674 C319.9658,58.3414 314.4198,64.7054 305.9548,64.7054 C298.2488,64.5884 291.9428,59.3344 291.9428,48.7674" id="Fill-16" fill="#008C96"></path>
                    <path d="M327.9626,63.8877 L324.4596,63.8877 L324.4596,33.6477 L327.9626,33.6477 L327.9626,38.2007 L328.0786,38.2007 C329.8886,34.7557 333.5086,32.8297 337.4196,32.8297 C343.0246,32.8297 345.0096,35.4567 346.2936,38.6677 C348.2776,34.7557 351.8396,32.8297 356.1596,32.8297 C364.3916,32.8297 365.5596,38.7267 365.5596,44.7977 L365.5596,63.8877 L362.0566,63.8877 L362.0566,42.9887 C362.0566,38.6677 360.5386,35.9827 355.5756,35.9827 C353.0076,35.9827 350.4966,37.0917 348.7456,39.4267 C347.2276,41.4107 346.7606,45.0897 346.7606,47.5997 L346.7606,63.8877 L343.2576,63.8877 L343.2576,42.9887 C343.2576,38.6677 341.7396,35.9827 336.7776,35.9827 C334.2086,35.9827 331.6986,37.0917 329.9466,39.4267 C328.4296,41.4107 327.9626,45.0897 327.9626,47.5997 L327.9626,63.8877 Z" id="Fill-18" fill="#008C96"></path>
                    <g id="Group-22">
                        <mask id="mask-2" fill="white">
                            <use xlink:href="#path-1"></use>
                        </mask>
                        <g id="Clip-21"></g>
                        <path d="M47.3288,54.834 L30.2568,54.834 L30.3358,32.26 L38.7918,23.723 L47.3288,32.25 L47.3288,54.834 Z M38.8048,10.054 L20.0138,28.821 L20.1068,54.834 L10.6228,54.834 L10.6228,32.26 L35.8058,7.066 L28.7508,0 L-0.0002,28.656 L-0.0002,63.938 L57.5728,63.938 L57.5788,28.679 L38.8048,10.054 Z" id="Fill-20" fill="#008C96" mask="url(#mask-2)"></path>
                    </g>
                </g>
            </g>
        </g>
    </g>
</svg>