<?xml version="1.0" encoding="UTF-8"?>
<svg width="456px" height="77px" viewBox="0 0 456 77" version="1.1" xmlns="http://www.w3.org/2000/svg" xmlns:xlink="http://www.w3.org/1999/xlink">
    <title>true-indulgence</title>
    <defs>
        <polygon id="path-1" points="0 76.266 455.05 76.266 455.05 0 0 0"></polygon>
    </defs>
    <g id="Page-1" stroke="none" stroke-width="1" fill="none" fill-rule="evenodd">
        <g id="Artboard" transform="translate(-46.000000, -168.000000)">
            <g id="true-indulgence" transform="translate(46.000000, 168.000000)">
                <polygon id="Fill-1" fill="#FEFEFE" points="68.3033 21.9722 102.3393 21.9722 102.3393 26.9932 88.1523 26.9932 88.1523 63.8892 82.4903 63.8892 82.4903 26.9932 68.3033 26.9932"></polygon>
                <g id="Group-20">
                    <path d="M104.3224,63.8892 L99.1844,63.8892 L99.1844,33.3562 L104.0304,33.3562 L104.0304,38.4352 L104.1474,38.4352 C106.1904,34.8742 108.8764,32.4802 112.7294,32.4802 C113.3714,32.4802 113.6634,32.5392 114.0724,32.6562 L114.0724,37.9682 L112.1454,37.9682 C107.3584,37.9682 104.3224,41.7042 104.3224,46.1412 L104.3224,63.8892 Z" id="Fill-2" fill="#FEFEFE"></path>
                    <path d="M137.2467,63.8892 L137.2467,59.4522 L137.1297,59.3352 C134.9697,62.8972 132.3427,64.7652 127.4387,64.7652 C122.9437,64.7652 117.5147,62.6052 117.5147,55.3072 L117.5147,33.3562 L122.6517,33.3562 L122.6517,53.6142 C122.6517,58.6342 125.2207,60.3272 128.5487,60.3272 C135.0287,60.3272 136.9547,54.6072 136.9547,50.1692 L136.9547,33.3562 L142.0927,33.3562 L142.0927,63.8892 L137.2467,63.8892 Z" id="Fill-4" fill="#FEFEFE"></path>
                    <path d="M169.3541,46.1997 C169.0621,41.4707 167.0771,37.0927 160.8311,37.0927 C156.1021,37.0927 152.3651,41.4707 152.3651,46.1997 L169.3541,46.1997 Z M174.2581,54.3147 C174.0831,55.7737 172.6821,60.0947 168.8291,62.6637 C167.4281,63.5967 165.4421,64.7647 160.5391,64.7647 C151.9571,64.7647 146.8781,58.2847 146.8781,49.4697 C146.8781,40.0117 151.4311,32.4807 161.5311,32.4807 C170.3471,32.4807 174.6661,39.4867 174.6661,50.2867 L152.3651,50.2867 C152.3651,56.6497 155.3431,60.3277 161.2391,60.3277 C166.0851,60.3277 168.9451,56.5917 169.1211,54.3147 L174.2581,54.3147 Z" id="Fill-6" fill="#FEFEFE"></path>
                    <mask id="mask-2" fill="white">
                        <use xlink:href="#path-1"></use>
                    </mask>
                    <g id="Clip-9"></g>
                    <polygon id="Fill-8" fill="#ED7822" mask="url(#mask-2)" points="181.671 63.889 185.641 63.889 185.641 21.855 181.671 21.855"></polygon>
                    <path d="M198.0162,63.8892 L194.5142,63.8892 L194.5142,33.6482 L198.0162,33.6482 L198.0162,37.8512 C200.8182,34.8742 203.5622,32.8312 207.7662,32.8312 C211.4442,32.8312 214.8292,33.9982 216.9902,37.1512 C218.4492,39.3112 218.5082,41.5872 218.5082,44.0982 L218.5082,63.8892 L215.0052,63.8892 L215.0052,44.1572 C215.0052,38.7272 212.7872,35.9832 207.1822,35.9832 C202.8622,35.9832 199.8842,38.7852 198.7752,41.8792 C198.0752,43.8062 198.0162,45.4992 198.0162,47.6012 L198.0162,63.8892 Z" id="Fill-10" fill="#ED7822" mask="url(#mask-2)"></path>
                    <path d="M238.6466,35.9834 C231.4076,35.9834 228.0216,42.1124 228.3136,49.7024 C228.3726,57.2914 232.7506,61.5544 238.6466,61.5544 C245.2446,61.5544 248.8636,55.9494 248.8636,48.6514 C248.8636,41.8204 245.0096,35.9834 238.6466,35.9834 L238.6466,35.9834 Z M248.8636,21.8554 L252.3666,21.8554 L252.3666,63.8894 L248.8636,63.8894 L248.8636,58.5764 L248.7466,58.5764 C246.7036,62.5464 242.0906,64.7064 238.2386,64.7064 C228.4886,64.7064 224.5776,57.7594 224.5776,48.8264 C224.5776,40.3614 228.8396,32.8314 238.0626,32.8314 C242.3256,32.8314 246.6446,34.8164 248.8636,38.4934 L248.8636,21.8554 Z" id="Fill-11" fill="#ED7822" mask="url(#mask-2)"></path>
                    <path d="M280.211,33.6484 L283.714,33.6484 L283.714,63.8894 L280.211,63.8894 L280.211,59.6864 C278.343,61.7874 275.774,64.7064 270.462,64.7064 C262.405,64.7064 259.72,59.8604 259.72,53.5554 L259.72,33.6484 L263.223,33.6484 L263.223,53.4974 C263.223,58.6924 265.499,61.5544 270.987,61.5544 C276.767,61.5544 280.211,56.7664 280.211,50.1104 L280.211,33.6484 Z" id="Fill-12" fill="#ED7822" mask="url(#mask-2)"></path>
                    <polygon id="Fill-13" fill="#ED7822" mask="url(#mask-2)" points="291.243 63.889 294.746 63.889 294.746 21.855 291.243 21.855"></polygon>
                    <path d="M315.3526,35.9834 C309.4566,35.9834 305.0786,40.2454 305.0196,47.8344 C304.7276,55.4234 308.1136,61.5544 315.3526,61.5544 C321.7156,61.5544 325.5696,55.7154 325.5696,48.8854 C325.5696,41.5874 321.9506,35.9834 315.3526,35.9834 L315.3526,35.9834 Z M325.5696,33.6484 L329.0726,33.6484 L329.0726,60.9704 C329.0726,69.0854 326.3866,76.2664 314.8856,76.2664 C306.0116,76.2664 302.3336,71.1874 302.1006,67.5664 L305.8366,67.5664 C306.8876,72.1204 310.7416,73.1134 314.8856,73.1134 C324.4596,73.1134 325.7446,65.9904 325.5696,59.0434 C323.3506,62.7224 319.0316,64.7064 314.7686,64.7064 C305.5446,64.7064 301.2836,57.1754 301.2836,48.7104 C301.2836,39.7784 305.1946,32.8314 314.9446,32.8314 C318.7966,32.8314 323.4096,34.9914 325.4526,38.9614 L325.5696,38.9614 L325.5696,33.6484 Z" id="Fill-14" fill="#ED7822" mask="url(#mask-2)"></path>
                    <path d="M358.3185,46.6665 C358.3185,40.7705 355.0495,35.9835 348.7445,35.9835 C342.5565,35.9835 339.2875,40.9455 338.5865,46.6665 L358.3185,46.6665 Z M338.5865,49.5855 C338.5285,56.1245 342.0315,61.5545 348.7445,61.5545 C353.2975,61.5545 356.8595,59.0435 357.9105,54.6065 L361.8215,54.6065 C360.0705,60.3275 356.4505,64.7065 348.7445,64.7065 C339.0535,64.7065 334.8495,57.8175 334.8495,48.8855 C334.8495,40.0695 340.1045,32.8315 348.7445,32.8315 C357.0345,32.8315 362.1135,38.7275 362.0545,49.5855 L338.5865,49.5855 Z" id="Fill-15" fill="#ED7822" mask="url(#mask-2)"></path>
                    <path d="M370.9268,63.8892 L367.4248,63.8892 L367.4248,33.6482 L370.9268,33.6482 L370.9268,37.8512 C373.7298,34.8742 376.4738,32.8312 380.6768,32.8312 C384.3548,32.8312 387.7398,33.9982 389.9008,37.1512 C391.3608,39.3112 391.4188,41.5872 391.4188,44.0982 L391.4188,63.8892 L387.9158,63.8892 L387.9158,44.1572 C387.9158,38.7272 385.6978,35.9832 380.0928,35.9832 C375.7728,35.9832 372.7948,38.7852 371.6868,41.8792 C370.9858,43.8062 370.9268,45.4992 370.9268,47.6012 L370.9268,63.8892 Z" id="Fill-16" fill="#ED7822" mask="url(#mask-2)"></path>
                    <path d="M419.8477,43.1636 C418.6217,38.6686 415.5277,35.9836 410.8577,35.9836 C403.6767,35.9836 400.6997,42.5216 400.6997,48.8266 C400.6997,55.1896 403.6187,61.5546 410.8577,61.5546 C416.0527,61.5546 419.3227,58.4596 420.1397,53.4386 L423.8757,53.4386 C422.6507,60.1526 418.4467,64.7066 410.8577,64.7066 C401.2247,64.7066 396.9627,57.7596 396.9627,48.8266 C396.9627,40.4206 401.8087,32.8306 410.8577,32.8306 C417.8047,32.8306 422.3587,36.1586 423.4097,43.1636 L419.8477,43.1636 Z" id="Fill-17" fill="#ED7822" mask="url(#mask-2)"></path>
                    <path d="M451.3126,46.6665 C451.3126,40.7705 448.0436,35.9835 441.7386,35.9835 C435.5506,35.9835 432.2816,40.9455 431.5806,46.6665 L451.3126,46.6665 Z M431.5806,49.5855 C431.5226,56.1245 435.0256,61.5545 441.7386,61.5545 C446.2916,61.5545 449.8536,59.0435 450.9046,54.6065 L454.8156,54.6065 C453.0646,60.3275 449.4446,64.7065 441.7386,64.7065 C432.0476,64.7065 427.8436,57.8175 427.8436,48.8855 C427.8436,40.0695 433.0986,32.8315 441.7386,32.8315 C450.0286,32.8315 455.1076,38.7275 455.0486,49.5855 L431.5806,49.5855 Z" id="Fill-18" fill="#ED7822" mask="url(#mask-2)"></path>
                    <path d="M47.3287,54.8345 L30.2567,54.8345 L30.3357,32.2605 L38.7917,23.7235 L47.3287,32.2505 L47.3287,54.8345 Z M38.8047,10.0545 L20.0137,28.8215 L20.1067,54.8345 L10.6227,54.8345 L10.6227,32.2605 L35.8057,7.0665 L28.7507,0.0005 L-0.0003,28.6565 L-0.0003,63.9385 L57.5727,63.9385 L57.5787,28.6795 L38.8047,10.0545 Z" id="Fill-19" fill="#ED7822" mask="url(#mask-2)"></path>
                </g>
            </g>
        </g>
    </g>
</svg>