<?xml version="1.0" encoding="UTF-8"?>
<svg width="463px" height="65px" viewBox="0 0 463 65" version="1.1" xmlns="http://www.w3.org/2000/svg" xmlns:xlink="http://www.w3.org/1999/xlink">
    <title>true-confidence</title>
    <defs>
        <polygon id="path-1" points="0 64.998 462.989 64.998 462.989 0 0 0"></polygon>
    </defs>
    <g id="Page-1" stroke="none" stroke-width="1" fill="none" fill-rule="evenodd">
        <g id="Artboard" transform="translate(-46.000000, -694.000000)">
            <g id="true-confidence" transform="translate(46.000000, 694.000000)">
                <polygon id="Fill-1" fill="#FEFEFE" points="68.3031 21.9717 102.3391 21.9717 102.3391 26.9927 88.1531 26.9927 88.1531 63.8887 82.4901 63.8887 82.4901 26.9927 68.3031 26.9927"></polygon>
                <g id="Group-22">
                    <path d="M104.3226,63.8882 L99.1846,63.8882 L99.1846,33.3562 L104.0306,33.3562 L104.0306,38.4352 L104.1466,38.4352 C106.1906,34.8732 108.8766,32.4802 112.7286,32.4802 C113.3716,32.4802 113.6636,32.5382 114.0716,32.6552 L114.0716,37.9672 L112.1446,37.9672 C107.3576,37.9672 104.3226,41.7032 104.3226,46.1412 L104.3226,63.8882 Z" id="Fill-2" fill="#FEFEFE"></path>
                    <path d="M137.2464,63.8882 L137.2464,59.4512 L137.1304,59.3342 C134.9704,62.8952 132.3434,64.7632 127.4384,64.7632 C122.9434,64.7632 117.5144,62.6042 117.5144,55.3062 L117.5144,33.3562 L122.6514,33.3562 L122.6514,53.6132 C122.6514,58.6332 125.2214,60.3262 128.5484,60.3262 C135.0284,60.3262 136.9554,54.6062 136.9554,50.1682 L136.9554,33.3562 L142.0924,33.3562 L142.0924,63.8882 L137.2464,63.8882 Z" id="Fill-4" fill="#FEFEFE"></path>
                    <path d="M169.3539,46.1997 C169.0619,41.4707 167.0779,37.0927 160.8309,37.0927 C156.1019,37.0927 152.3659,41.4707 152.3659,46.1997 L169.3539,46.1997 Z M174.2579,54.3137 C174.0829,55.7727 172.6819,60.0937 168.8289,62.6617 C167.4279,63.5957 165.4429,64.7627 160.5389,64.7627 C151.9569,64.7627 146.8779,58.2837 146.8779,49.4687 C146.8779,40.0117 151.4309,32.4797 161.5319,32.4797 C170.3469,32.4797 174.6659,39.4857 174.6659,50.2857 L152.3659,50.2857 C152.3659,56.6487 155.3429,60.3267 161.2399,60.3267 C166.0849,60.3267 168.9459,56.5907 169.1209,54.3137 L174.2579,54.3137 Z" id="Fill-6" fill="#FEFEFE"></path>
                    <path d="M210.1019,34.0561 C208.4669,26.8751 204.0309,24.1321 196.8489,24.1321 C186.6909,24.1321 182.3129,32.8301 182.3129,42.7541 C182.3129,52.1541 185.7569,61.6111 197.1999,61.6111 C204.4389,61.6111 208.9339,56.7071 210.5099,50.0521 L214.6559,50.0521 C212.7879,58.1661 207.7079,64.9971 196.4409,64.9971 C183.4809,64.9971 178.3429,54.7811 178.3429,42.8711 C178.3429,26.8171 186.7489,20.7451 197.8999,20.7451 C206.5399,20.7451 212.8449,25.3581 214.1879,34.0561 L210.1019,34.0561 Z" id="Fill-8" fill="#52C5D7"></path>
                    <path d="M232.4588,35.9829 C225.1028,35.9829 222.1828,42.2289 222.1828,48.7669 C222.1828,56.2979 225.7448,61.5519 232.4588,61.5519 C239.8138,61.5519 242.7328,55.2479 242.7328,48.7669 C242.6758,41.6459 239.8728,35.9829 232.4588,35.9829 M218.4468,48.7669 C218.4468,39.9529 223.1178,32.8309 232.4588,32.8309 C241.9168,32.8309 246.4698,39.8939 246.4698,48.7669 C246.4698,58.3419 240.9238,64.7059 232.4588,64.7059 C224.7518,64.5879 218.4468,59.3349 218.4468,48.7669" id="Fill-10" fill="#52C5D7"></path>
                    <path d="M254.9335,63.8882 L251.4305,63.8882 L251.4305,33.6482 L254.9335,33.6482 L254.9335,37.8512 C257.7355,34.8732 260.4795,32.8302 264.6825,32.8302 C268.3615,32.8302 271.7465,33.9972 273.9075,37.1502 C275.3665,39.3102 275.4245,41.5872 275.4245,44.0972 L275.4245,63.8882 L271.9215,63.8882 L271.9215,44.1562 C271.9215,38.7272 269.7035,35.9832 264.0995,35.9832 C259.7795,35.9832 256.8015,38.7842 255.6925,41.8792 C254.9925,43.8062 254.9335,45.4982 254.9335,47.6002 L254.9335,63.8882 Z" id="Fill-12" fill="#52C5D7"></path>
                    <mask id="mask-2" fill="white">
                        <use xlink:href="#path-1"></use>
                    </mask>
                    <g id="Clip-15"></g>
                    <path d="M299.942,63.888 L303.445,63.888 L303.445,33.648 L299.942,33.648 L299.942,63.888 Z M299.767,27.051 L303.621,27.051 L303.621,21.855 L299.767,21.855 L299.767,27.051 Z M278.984,36.567 L278.984,33.648 L283.597,33.648 L283.597,28.861 C283.597,24.073 285.348,21.038 290.018,21.038 C291.069,21.038 292.003,21.096 292.937,21.271 L292.937,24.482 C292.236,24.307 291.477,24.19 290.836,24.19 C287.216,24.19 287.099,27.167 287.099,29.912 L287.099,33.648 L292.82,33.648 L292.82,36.567 L287.099,36.567 L287.099,63.888 L283.597,63.888 L283.597,36.567 L278.984,36.567 Z" id="Fill-14" fill="#52C5D7" mask="url(#mask-2)"></path>
                    <path d="M323.2928,35.9829 C316.0538,35.9829 312.6678,42.1129 312.9598,49.7019 C313.0188,57.2909 317.3968,61.5519 323.2928,61.5519 C329.8908,61.5519 333.5098,55.9479 333.5098,48.6509 C333.5098,41.8209 329.6558,35.9829 323.2928,35.9829 L323.2928,35.9829 Z M333.5098,21.8549 L337.0128,21.8549 L337.0128,63.8879 L333.5098,63.8879 L333.5098,58.5759 L333.3928,58.5759 C331.3498,62.5449 326.7368,64.7059 322.8848,64.7059 C313.1348,64.7059 309.2238,57.7579 309.2238,48.8259 C309.2238,40.3609 313.4848,32.8309 322.7088,32.8309 C326.9718,32.8309 331.2908,34.8149 333.5098,38.4929 L333.5098,21.8549 Z" id="Fill-16" fill="#52C5D7" mask="url(#mask-2)"></path>
                    <path d="M366.2586,46.6655 C366.2586,40.7695 362.9886,35.9825 356.6846,35.9825 C350.4956,35.9825 347.2266,40.9445 346.5266,46.6655 L366.2586,46.6655 Z M346.5266,49.5845 C346.4676,56.1235 349.9706,61.5525 356.6846,61.5525 C361.2376,61.5525 364.7986,59.0425 365.8506,54.6055 L369.7616,54.6055 C368.0096,60.3265 364.3906,64.7055 356.6846,64.7055 C346.9926,64.7055 342.7896,57.8155 342.7896,48.8845 C342.7896,40.0695 348.0436,32.8305 356.6846,32.8305 C364.9746,32.8305 370.0536,38.7275 369.9946,49.5845 L346.5266,49.5845 Z" id="Fill-17" fill="#52C5D7" mask="url(#mask-2)"></path>
                    <path d="M378.867,63.8882 L375.365,63.8882 L375.365,33.6482 L378.867,33.6482 L378.867,37.8512 C381.67,34.8732 384.414,32.8302 388.617,32.8302 C392.295,32.8302 395.68,33.9972 397.841,37.1502 C399.301,39.3102 399.359,41.5872 399.359,44.0972 L399.359,63.8882 L395.856,63.8882 L395.856,44.1562 C395.856,38.7272 393.638,35.9832 388.033,35.9832 C383.713,35.9832 380.735,38.7842 379.627,41.8792 C378.926,43.8062 378.867,45.4982 378.867,47.6002 L378.867,63.8882 Z" id="Fill-18" fill="#52C5D7" mask="url(#mask-2)"></path>
                    <path d="M427.7879,43.1636 C426.5619,38.6686 423.4679,35.9826 418.7979,35.9826 C411.6169,35.9826 408.6399,42.5206 408.6399,48.8256 C408.6399,55.1886 411.5589,61.5526 418.7979,61.5526 C423.9929,61.5526 427.2629,58.4586 428.0799,53.4376 L431.8159,53.4376 C430.5909,60.1516 426.3869,64.7056 418.7979,64.7056 C409.1649,64.7056 404.9029,57.7586 404.9029,48.8256 C404.9029,40.4196 409.7489,32.8306 418.7979,32.8306 C425.7449,32.8306 430.2989,36.1576 431.3499,43.1636 L427.7879,43.1636 Z" id="Fill-19" fill="#52C5D7" mask="url(#mask-2)"></path>
                    <path d="M459.2528,46.6655 C459.2528,40.7695 455.9838,35.9825 449.6788,35.9825 C443.4908,35.9825 440.2218,40.9445 439.5208,46.6655 L459.2528,46.6655 Z M439.5208,49.5845 C439.4628,56.1235 442.9658,61.5525 449.6788,61.5525 C454.2318,61.5525 457.7938,59.0425 458.8448,54.6055 L462.7558,54.6055 C461.0048,60.3265 457.3848,64.7055 449.6788,64.7055 C439.9878,64.7055 435.7838,57.8155 435.7838,48.8845 C435.7838,40.0695 441.0388,32.8305 449.6788,32.8305 C457.9688,32.8305 463.0478,38.7275 462.9888,49.5845 L439.5208,49.5845 Z" id="Fill-20" fill="#52C5D7" mask="url(#mask-2)"></path>
                    <path d="M47.329,54.8345 L30.257,54.8345 L30.336,32.2595 L38.792,23.7235 L47.329,32.2505 L47.329,54.8345 Z M38.805,10.0545 L20.013,28.8215 L20.107,54.8345 L10.623,54.8345 L10.623,32.2595 L35.805,7.0655 L28.751,0.0005 L0,28.6555 L0,63.9385 L57.573,63.9385 L57.579,28.6795 L38.805,10.0545 Z" id="Fill-21" fill="#52C5D7" mask="url(#mask-2)"></path>
                </g>
            </g>
        </g>
    </g>
</svg>