<?xml version="1.0" encoding="UTF-8"?>
<svg width="294px" height="65px" viewBox="0 0 294 65" version="1.1" xmlns="http://www.w3.org/2000/svg" xmlns:xlink="http://www.w3.org/1999/xlink">
    <title>true-care</title>
    <defs>
        <polygon id="path-1" points="0 0 27.2052 0 27.2052 31.875 0 31.875"></polygon>
        <polygon id="path-3" points="0 0 57.5789 0 57.5789 63.938 0 63.938"></polygon>
    </defs>
    <g id="Page-1" stroke="none" stroke-width="1" fill="none" fill-rule="evenodd">
        <g id="Artboard" transform="translate(-46.000000, -570.000000)">
            <g id="true-care" transform="translate(46.000000, 570.000000)">
                <polygon id="Fill-1" fill="#FEFEFE" points="68.3031 21.9722 102.3391 21.9722 102.3391 26.9932 88.1521 26.9932 88.1521 63.8892 82.4901 63.8892 82.4901 26.9932 68.3031 26.9932"></polygon>
                <g id="Group-20">
                    <path d="M104.3221,63.8897 L99.1841,63.8897 L99.1841,33.3577 L104.0301,33.3577 L104.0301,38.4367 L104.1471,38.4367 C106.1901,34.8747 108.8761,32.4807 112.7291,32.4807 C113.3711,32.4807 113.6631,32.5397 114.0721,32.6557 L114.0721,37.9687 L112.1451,37.9687 C107.3581,37.9687 104.3221,41.7047 104.3221,46.1427 L104.3221,63.8897 Z" id="Fill-2" fill="#FEFEFE"></path>
                    <path d="M137.2464,63.8897 L137.2464,59.4527 L137.1294,59.3357 C134.9694,62.8977 132.3424,64.7657 127.4384,64.7657 C122.9434,64.7657 117.5144,62.6057 117.5144,55.3077 L117.5144,33.3577 L122.6514,33.3577 L122.6514,53.6157 C122.6514,58.6357 125.2204,60.3287 128.5484,60.3287 C135.0284,60.3287 136.9544,54.6077 136.9544,50.1707 L136.9544,33.3577 L142.0924,33.3577 L142.0924,63.8897 L137.2464,63.8897 Z" id="Fill-4" fill="#FEFEFE"></path>
                    <path d="M169.3543,46.2012 C169.0623,41.4722 167.0773,37.0942 160.8313,37.0942 C156.1013,37.0942 152.3653,41.4722 152.3653,46.2012 L169.3543,46.2012 Z M174.2573,54.3152 C174.0833,55.7752 172.6813,60.0952 168.8293,62.6642 C167.4273,63.5972 165.4423,64.7652 160.5393,64.7652 C151.9573,64.7652 146.8773,58.2852 146.8773,49.4702 C146.8773,40.0132 151.4313,32.4812 161.5313,32.4812 C170.3463,32.4812 174.6663,39.4872 174.6663,50.2872 L152.3653,50.2872 C152.3653,56.6502 155.3423,60.3292 161.2393,60.3292 C166.0843,60.3292 168.9453,56.5932 169.1213,54.3152 L174.2573,54.3152 Z" id="Fill-6" fill="#FEFEFE"></path>
                    <path d="M210.1014,34.0576 C208.4664,26.8766 204.0304,24.1326 196.8494,24.1326 C186.6914,24.1326 182.3124,32.8316 182.3124,42.7556 C182.3124,52.1556 185.7564,61.6136 197.2004,61.6136 C204.4384,61.6136 208.9344,56.7086 210.5104,50.0536 L214.6554,50.0536 C212.7874,58.1686 207.7074,64.9986 196.4404,64.9986 C183.4804,64.9986 178.3424,54.7826 178.3424,42.8726 C178.3424,26.8176 186.7494,20.7466 197.9004,20.7466 C206.5404,20.7466 212.8454,25.3586 214.1884,34.0576 L210.1014,34.0576 Z" id="Fill-8" fill="#EE4354"></path>
                    <path d="M240.2225,48.0108 C237.2445,49.2368 234.2095,49.4698 231.1735,49.7028 C225.8615,50.1128 222.6505,52.0388 222.6505,56.1248 C222.6505,59.8038 225.8615,61.5548 229.1895,61.5548 C234.7355,61.5548 240.2225,58.8688 240.2225,52.7398 L240.2225,48.0108 Z M234.3265,46.2588 C235.6115,46.1428 237.7715,45.7918 238.9385,45.2668 C240.1065,44.7408 240.2225,43.1648 240.2225,42.1148 C240.2225,38.5528 238.1205,35.9848 232.6925,35.9848 C227.8465,35.9848 224.5185,37.5608 223.8765,42.8148 L220.3155,42.8148 C220.8405,35.6928 226.1535,32.8318 232.7495,32.8318 C238.8795,32.8318 243.7255,35.2258 243.7255,42.2308 L243.7255,58.6948 C243.7255,61.4378 244.4265,62.0798 247.4035,61.0298 L247.4035,63.7738 C246.8775,63.9488 245.6525,64.3568 244.6595,64.3568 C244.0765,64.3568 243.6095,64.2988 243.0835,64.1818 C240.7475,63.8308 240.3395,61.7878 240.2815,59.6868 C237.3625,62.9558 233.3925,64.7068 229.0135,64.7068 C223.7015,64.7068 218.9135,61.8468 218.9135,56.0088 C218.9135,50.9298 222.4165,47.8348 229.4815,46.9018 L234.3265,46.2588 Z" id="Fill-10" fill="#EE4354"></path>
                    <path d="M255.1082,63.8897 L251.6052,63.8897 L251.6052,33.6497 L255.1082,33.6497 L255.1082,39.3117 L255.2242,39.3117 C257.1512,34.4657 260.0112,32.8317 265.0902,32.8317 L265.0902,36.6257 C257.2102,36.4517 255.1082,42.2887 255.1082,49.0617 L255.1082,63.8897 Z" id="Fill-12" fill="#EE4354"></path>
                    <g id="Group-16" transform="translate(266.782800, 32.832000)">
                        <mask id="mask-2" fill="white">
                            <use xlink:href="#path-1"></use>
                        </mask>
                        <g id="Clip-15"></g>
                        <path d="M23.469,13.836 C23.469,7.94 20.199,3.152 13.895,3.152 C7.706,3.152 4.437,8.114 3.737,13.836 L23.469,13.836 Z M3.737,16.755 C3.678,23.293 7.181,28.723 13.895,28.723 C18.448,28.723 22.009,26.212 23.06,21.775 L26.972,21.775 C25.22,27.497 21.601,31.875 13.895,31.875 C4.203,31.875 0,24.986 0,16.054 C0,7.238 5.254,0 13.895,0 C22.185,0 27.264,5.897 27.205,16.755 L3.737,16.755 Z" id="Fill-14" fill="#EE4354" mask="url(#mask-2)"></path>
                    </g>
                    <g id="Group-19">
                        <mask id="mask-4" fill="white">
                            <use xlink:href="#path-3"></use>
                        </mask>
                        <g id="Clip-18"></g>
                        <path d="M47.3289,54.834 L30.2569,54.834 L30.3359,32.26 L38.7919,23.723 L47.3289,32.25 L47.3289,54.834 Z M38.8049,10.054 L20.0139,28.821 L20.1069,54.834 L10.6229,54.834 L10.6229,32.26 L35.8049,7.066 L28.7509,0 L-0.0001,28.656 L-0.0001,63.938 L57.5729,63.938 L57.5789,28.679 L38.8049,10.054 Z" id="Fill-17" fill="#EE4354" mask="url(#mask-4)"></path>
                    </g>
                </g>
            </g>
        </g>
    </g>
</svg>