<?xml version="1.0" encoding="UTF-8"?>
<svg width="470px" height="76px" viewBox="0 0 470 76" version="1.1" xmlns="http://www.w3.org/2000/svg" xmlns:xlink="http://www.w3.org/1999/xlink">
    <title>true-opportunity</title>
    <defs>
        <polygon id="path-1" points="0 75.866 469.118 75.866 469.118 0 0 0"></polygon>
    </defs>
    <g id="Page-1" stroke="none" stroke-width="1" fill="none" fill-rule="evenodd">
        <g id="Artboard" transform="translate(-46.000000, -302.000000)">
            <g id="true-opportunity" transform="translate(46.000000, 302.000000)">
                <polygon id="Fill-1" fill="#FEFEFE" points="68.3035 22.0393 102.3395 22.0393 102.3395 27.0603 88.1525 27.0603 88.1525 63.9563 82.4905 63.9563 82.4905 27.0603 68.3035 27.0603"></polygon>
                <g id="Group-29">
                    <path d="M104.3226,63.9563 L99.1846,63.9563 L99.1846,33.4233 L104.0306,33.4233 L104.0306,38.5023 L104.1476,38.5023 C106.1906,34.9413 108.8766,32.5473 112.7296,32.5473 C113.3716,32.5473 113.6636,32.6063 114.0726,32.7233 L114.0726,38.0353 L112.1456,38.0353 C107.3586,38.0353 104.3226,41.7713 104.3226,46.2083 L104.3226,63.9563 Z" id="Fill-2" fill="#FEFEFE"></path>
                    <path d="M137.2469,63.9563 L137.2469,59.5193 L137.1299,59.4023 C134.9699,62.9633 132.3429,64.8313 127.4389,64.8313 C122.9439,64.8313 117.5149,62.6723 117.5149,55.3743 L117.5149,33.4233 L122.6519,33.4233 L122.6519,53.6813 C122.6519,58.7013 125.2209,60.3943 128.5489,60.3943 C135.0289,60.3943 136.9549,54.6743 136.9549,50.2363 L136.9549,33.4233 L142.0929,33.4233 L142.0929,63.9563 L137.2469,63.9563 Z" id="Fill-4" fill="#FEFEFE"></path>
                    <path d="M169.3543,46.2669 C169.0623,41.5379 167.0773,37.1599 160.8313,37.1599 C156.1023,37.1599 152.3653,41.5379 152.3653,46.2669 L169.3543,46.2669 Z M174.2583,54.3819 C174.0833,55.8409 172.6823,60.1619 168.8293,62.7299 C167.4283,63.6639 165.4423,64.8309 160.5393,64.8309 C151.9573,64.8309 146.8783,58.3519 146.8783,49.5369 C146.8783,40.0789 151.4313,32.5479 161.5313,32.5479 C170.3473,32.5479 174.6663,39.5529 174.6663,50.3539 L152.3653,50.3539 C152.3653,56.7169 155.3433,60.3949 161.2393,60.3949 C166.0853,60.3949 168.9453,56.6589 169.1213,54.3819 L174.2583,54.3819 Z" id="Fill-6" fill="#FEFEFE"></path>
                    <path d="M213.8382,42.9973 C213.8382,31.3223 207.8252,24.1993 198.1342,24.1993 C187.3342,24.1993 182.6052,33.2483 182.6052,42.9973 C182.6052,52.9223 187.2752,61.6793 198.2512,61.6793 C209.1682,61.6793 213.8382,52.8063 213.8382,42.9973 M198.0172,20.8133 C211.1522,20.8133 217.8082,30.6793 217.8082,42.9973 C217.8082,55.0823 211.1522,65.0653 198.1922,65.0653 C185.2322,65.0653 178.634824,55.0823 178.634824,42.9973 C178.5762,30.7383 185.4652,20.8133 198.0172,20.8133" id="Fill-8" fill="#98BB56"></path>
                    <path d="M237.8299,61.6214 C245.0689,61.6214 248.4549,55.4904 248.1629,47.9014 C248.1049,40.3114 243.7259,36.0504 237.8299,36.0504 C231.2329,36.0504 227.6139,41.6544 227.6139,48.9524 C227.6139,55.7824 231.4669,61.6214 237.8299,61.6214 L237.8299,61.6214 Z M227.6139,75.8654 L224.1109,75.8654 L224.1109,33.7154 L227.6139,33.7154 L227.6139,39.0284 L227.7299,39.0284 C229.7739,35.0584 234.3859,32.8984 238.2389,32.8984 C247.9879,32.8984 251.8989,39.8454 251.8989,48.7774 C251.8989,57.2424 247.6379,64.7734 238.4139,64.7734 C234.1519,64.7734 229.8319,62.7884 227.6139,59.1104 L227.6139,75.8654 Z" id="Fill-10" fill="#98BB56"></path>
                    <path d="M272.0389,61.6214 C279.2769,61.6214 282.6639,55.4904 282.3719,47.9014 C282.3129,40.3114 277.9349,36.0504 272.0389,36.0504 C265.4409,36.0504 261.8219,41.6544 261.8219,48.9524 C261.8219,55.7824 265.6749,61.6214 272.0389,61.6214 L272.0389,61.6214 Z M261.8219,75.8654 L258.3189,75.8654 L258.3189,33.7154 L261.8219,33.7154 L261.8219,39.0284 L261.9379,39.0284 C263.9819,35.0584 268.5939,32.8984 272.4469,32.8984 C282.1959,32.8984 286.1079,39.8454 286.1079,48.7774 C286.1079,57.2424 281.8469,64.7734 272.6219,64.7734 C268.3599,64.7734 264.0409,62.7884 261.8219,59.1104 L261.8219,75.8654 Z" id="Fill-12" fill="#98BB56"></path>
                    <path d="M304.1453,36.0506 C296.7893,36.0506 293.8703,42.2976 293.8703,48.8356 C293.8703,56.3666 297.4313,61.6216 304.1453,61.6216 C311.5003,61.6216 314.4193,55.3156 314.4193,48.8356 C314.3623,41.7136 311.5593,36.0506 304.1453,36.0506 M290.1333,48.8356 C290.1333,40.0196 294.8043,32.8986 304.1453,32.8986 C313.6023,32.8986 318.1563,39.9626 318.1563,48.8356 C318.1563,58.4106 312.6103,64.7736 304.1453,64.7736 C296.4393,64.6566 290.1333,59.4026 290.1333,48.8356" id="Fill-14" fill="#98BB56"></path>
                    <path d="M326.7947,63.9563 L323.2917,63.9563 L323.2917,33.7153 L326.7947,33.7153 L326.7947,39.3783 L326.9117,39.3783 C328.8387,34.5323 331.6987,32.8983 336.7777,32.8983 L336.7777,36.6923 C328.8967,36.5183 326.7947,42.3553 326.7947,49.1273 L326.7947,63.9563 Z" id="Fill-16" fill="#98BB56"></path>
                    <path d="M352.7723,64.0725 C351.9553,64.2485 350.4363,64.7735 348.7443,64.7735 C345.2993,64.7735 343.3733,63.2555 343.3733,58.7605 L343.3733,36.6345 L339.1113,36.6345 L339.1113,33.7155 L343.3733,33.7155 L343.3733,25.3085 L346.8763,25.3085 L346.8763,33.7155 L352.5393,33.7155 L352.5393,36.6345 L346.8763,36.6345 L346.8763,57.3585 C346.8763,60.3365 346.9923,61.6215 349.9113,61.6215 C350.8453,61.6215 351.8373,61.4455 352.7723,61.2125 L352.7723,64.0725 Z" id="Fill-18" fill="#98BB56"></path>
                    <path d="M377.408,33.7156 L380.911,33.7156 L380.911,63.9566 L377.408,63.9566 L377.408,59.7536 C375.54,61.8546 372.971,64.7736 367.659,64.7736 C359.602,64.7736 356.917,59.9276 356.917,53.6226 L356.917,33.7156 L360.42,33.7156 L360.42,53.5646 C360.42,58.7596 362.696,61.6216 368.184,61.6216 C373.964,61.6216 377.408,56.8336 377.408,50.1776 L377.408,33.7156 Z" id="Fill-20" fill="#98BB56"></path>
                    <path d="M391.4178,63.9563 L387.9148,63.9563 L387.9148,33.7153 L391.4178,33.7153 L391.4178,37.9183 C394.2198,34.9413 396.9638,32.8983 401.1668,32.8983 C404.8458,32.8983 408.2308,34.0653 410.3918,37.2183 C411.8508,39.3783 411.9088,41.6543 411.9088,44.1653 L411.9088,63.9563 L408.4058,63.9563 L408.4058,44.2243 C408.4058,38.7943 406.1888,36.0503 400.5838,36.0503 C396.2638,36.0503 393.2858,38.8523 392.1768,41.9463 C391.4768,43.8733 391.4178,45.5663 391.4178,47.6683 L391.4178,63.9563 Z" id="Fill-22" fill="#98BB56"></path>
                    <mask id="mask-2" fill="white">
                        <use xlink:href="#path-1"></use>
                    </mask>
                    <g id="Clip-25"></g>
                    <path d="M419.438,63.957 L422.941,63.957 L422.941,33.716 L419.438,33.716 L419.438,63.957 Z M419.263,27.119 L423.116,27.119 L423.116,21.923 L419.263,21.923 L419.263,27.119 Z" id="Fill-24" fill="#98BB56" mask="url(#mask-2)"></path>
                    <path d="M441.0379,64.0725 C440.2209,64.2485 438.7019,64.7735 437.0099,64.7735 C433.5649,64.7735 431.6389,63.2555 431.6389,58.7605 L431.6389,36.6345 L427.3769,36.6345 L427.3769,33.7155 L431.6389,33.7155 L431.6389,25.3085 L435.1419,25.3085 L435.1419,33.7155 L440.8049,33.7155 L440.8049,36.6345 L435.1419,36.6345 L435.1419,57.3585 C435.1419,60.3365 435.2579,61.6215 438.1769,61.6215 C439.1109,61.6215 440.1029,61.4455 441.0379,61.2125 L441.0379,64.0725 Z" id="Fill-26" fill="#98BB56" mask="url(#mask-2)"></path>
                    <path d="M444.9481,72.1878 C445.8831,72.3628 446.8751,72.5388 447.8671,72.5388 C451.8381,72.5388 452.4211,66.8168 453.7631,64.1898 L442.0291,33.7158 L445.9411,33.7158 L455.6321,59.6948 L465.3231,33.7158 L469.1181,33.7158 L457.8501,63.5468 C454.9901,71.1368 453.1221,75.8658 448.2761,75.8658 C447.0501,75.8658 445.8831,75.6908 444.9481,75.4578 L444.9481,72.1878 Z" id="Fill-27" fill="#98BB56" mask="url(#mask-2)"></path>
                    <path d="M47.3289,54.8352 L30.2569,54.8352 L30.3359,32.2602 L38.7919,23.7232 L47.3289,32.2512 L47.3289,54.8352 Z M38.8049,10.0542 L20.0139,28.8222 L20.1069,54.8352 L10.6229,54.8352 L10.6229,32.2602 L35.8049,7.0662 L28.7509,0.0002 L-0.0001,28.6562 L-0.0001,63.9392 L57.5729,63.9392 L57.5789,28.6792 L38.8049,10.0542 Z" id="Fill-28" fill="#98BB56" mask="url(#mask-2)"></path>
                </g>
            </g>
        </g>
    </g>
</svg>