<?xml version="1.0" encoding="UTF-8"?>
<svg width="441px" height="65px" viewBox="0 0 441 65" version="1.1" xmlns="http://www.w3.org/2000/svg" xmlns:xlink="http://www.w3.org/1999/xlink">
    <title>true-assurance</title>
    <defs>
        <polygon id="path-1" points="0 0 57.5788 0 57.5788 63.938 0 63.938"></polygon>
    </defs>
    <g id="Page-1" stroke="none" stroke-width="1" fill="none" fill-rule="evenodd">
        <g id="Artboard" transform="translate(-46.000000, -45.000000)">
            <g id="true-assurance" transform="translate(46.000000, 45.000000)">
                <polygon id="Fill-1" fill="#FEFEFE" points="68.3037 22.0265 68.3037 27.0475 82.4897 27.0475 82.4897 63.9435 88.1527 63.9435 88.1527 27.0475 102.3387 27.0475 102.3387 22.0265"></polygon>
                <g id="Group-29">
                    <path d="M104.3225,63.9434 L99.1845,63.9434 L99.1845,33.4104 L104.0305,33.4104 L104.0305,38.4894 L104.1475,38.4894 C106.1905,34.9274 108.8765,32.5344 112.7295,32.5344 C113.3715,32.5344 113.6635,32.5924 114.0725,32.7104 L114.0725,38.0224 L112.1455,38.0224 C107.3585,38.0224 104.3225,41.7584 104.3225,46.1954 L104.3225,63.9434 Z" id="Fill-2" fill="#FEFEFE"></path>
                    <path d="M137.2468,63.9434 L137.2468,59.5064 L137.1298,59.3894 C134.9698,62.9514 132.3428,64.8194 127.4388,64.8194 C122.9438,64.8194 117.5148,62.6594 117.5148,55.3614 L117.5148,33.4104 L122.6518,33.4104 L122.6518,53.6684 C122.6518,58.6894 125.2208,60.3814 128.5488,60.3814 C135.0288,60.3814 136.9548,54.6614 136.9548,50.2234 L136.9548,33.4104 L142.0928,33.4104 L142.0928,63.9434 L137.2468,63.9434 Z" id="Fill-4" fill="#FEFEFE"></path>
                    <path d="M169.3542,46.2539 C169.0622,41.5249 167.0772,37.1469 160.8312,37.1469 C156.1022,37.1469 152.3652,41.5249 152.3652,46.2539 L169.3542,46.2539 Z M174.2582,54.3689 C174.0832,55.8279 172.6822,60.1489 168.8292,62.7179 C167.4282,63.6509 165.4422,64.8189 160.5392,64.8189 C151.9572,64.8189 146.8782,58.3389 146.8782,49.5239 C146.8782,40.0659 151.4312,32.5339 161.5312,32.5339 C170.3472,32.5339 174.6662,39.5399 174.6662,50.3409 L152.3652,50.3409 C152.3652,56.7039 155.3432,60.3819 161.2392,60.3819 C166.0852,60.3819 168.9452,56.6459 169.1212,54.3689 L174.2582,54.3689 Z" id="Fill-6" fill="#FEFEFE"></path>
                    <path d="M186.8083,47.3633 L203.2713,47.3633 L195.0393,25.2963 L186.8083,47.3633 Z M176.4163,63.9433 L192.9383,21.9093 L197.4333,21.9093 L213.5463,63.9433 L209.4593,63.9433 L204.6143,50.7493 L185.4653,50.7493 L180.5033,63.9433 L176.4163,63.9433 Z" id="Fill-8" fill="#898C8D"></path>
                    <path d="M219.2648,54.4854 C220.3738,59.6814 223.0588,61.6084 228.3128,61.6084 C233.3918,61.6084 235.7858,58.9224 235.7858,56.0044 C235.7858,47.2474 216.4048,53.4344 216.4048,41.5254 C216.4048,36.5054 220.3148,32.8844 227.0288,32.8844 C233.5678,32.8844 237.8298,35.5704 238.7048,42.4014 L235.1438,42.4014 C234.5018,37.7304 231.3488,36.0374 226.9708,36.0374 C222.5338,36.0374 220.1398,38.1394 220.1398,41.2334 C220.1398,49.4644 239.5218,44.3284 239.5218,55.9454 C239.5218,61.7244 234.3268,64.7604 227.2048,64.7604 C220.0818,64.7604 215.9958,60.2074 215.7038,54.4854 L219.2648,54.4854 Z" id="Fill-10" fill="#898C8D"></path>
                    <path d="M246.9939,54.4854 C248.1029,59.6814 250.7889,61.6084 256.0429,61.6084 C261.1219,61.6084 263.5149,58.9224 263.5149,56.0044 C263.5149,47.2474 244.1339,53.4344 244.1339,41.5254 C244.1339,36.5054 248.0449,32.8844 254.7589,32.8844 C261.2969,32.8844 265.5579,35.5704 266.4339,42.4014 L262.8729,42.4014 C262.2309,37.7304 259.0789,36.0374 254.6999,36.0374 C250.2639,36.0374 247.8699,38.1394 247.8699,41.2334 C247.8699,49.4644 267.2519,44.3284 267.2519,55.9454 C267.2519,61.7244 262.0559,64.7604 254.9329,64.7604 C247.8109,64.7604 243.7239,60.2074 243.4319,54.4854 L246.9939,54.4854 Z" id="Fill-12" fill="#898C8D"></path>
                    <path d="M293.1706,33.7022 L296.6736,33.7022 L296.6736,63.9432 L293.1706,63.9432 L293.1706,59.7402 C291.3026,61.8422 288.7336,64.7612 283.4216,64.7612 C275.3646,64.7612 272.6796,59.9152 272.6796,53.6102 L272.6796,33.7022 L276.1826,33.7022 L276.1826,53.5522 C276.1826,58.7472 278.4586,61.6082 283.9466,61.6082 C289.7266,61.6082 293.1706,56.8212 293.1706,50.1662 L293.1706,33.7022 Z" id="Fill-14" fill="#898C8D"></path>
                    <path d="M307.3552,63.9434 L303.8522,63.9434 L303.8522,33.7024 L307.3552,33.7024 L307.3552,39.3654 L307.4722,39.3654 C309.3992,34.5194 312.2592,32.8844 317.3382,32.8844 L317.3382,36.6794 C309.4572,36.5054 307.3552,42.3424 307.3552,49.1154 L307.3552,63.9434 Z" id="Fill-16" fill="#898C8D"></path>
                    <path d="M341.448,48.0645 C338.47,49.2905 335.434,49.5235 332.399,49.7565 C327.087,50.1665 323.876,52.0915 323.876,56.1785 C323.876,59.8565 327.087,61.6085 330.414,61.6085 C335.96,61.6085 341.448,58.9225 341.448,52.7935 L341.448,48.0645 Z M335.552,46.3125 C336.836,46.1955 338.996,45.8455 340.164,45.3205 C341.331,44.7945 341.448,43.2185 341.448,42.1685 C341.448,38.6065 339.346,36.0375 333.917,36.0375 C329.071,36.0375 325.744,37.6135 325.101,42.8685 L321.54,42.8685 C322.065,35.7455 327.379,32.8845 333.975,32.8845 C340.105,32.8845 344.951,35.2785 344.951,42.2845 L344.951,58.7475 C344.951,61.4915 345.651,62.1335 348.629,61.0835 L348.629,63.8265 C348.103,64.0025 346.877,64.4105 345.885,64.4105 C345.301,64.4105 344.834,64.3515 344.308,64.2355 C341.973,63.8845 341.564,61.8415 341.507,59.7405 C338.588,63.0095 334.617,64.7605 330.239,64.7605 C324.927,64.7605 320.139,61.9005 320.139,56.0625 C320.139,50.9835 323.642,47.8885 330.706,46.9555 L335.552,46.3125 Z" id="Fill-18" fill="#898C8D"></path>
                    <path d="M356.1579,63.9434 L352.6549,63.9434 L352.6549,33.7024 L356.1579,33.7024 L356.1579,37.9064 C358.9609,34.9274 361.7049,32.8844 365.9079,32.8844 C369.5859,32.8844 372.9709,34.0524 375.1319,37.2054 C376.5919,39.3654 376.6499,41.6424 376.6499,44.1524 L376.6499,63.9434 L373.1469,63.9434 L373.1469,44.2114 C373.1469,38.7814 370.9289,36.0374 365.3239,36.0374 C361.0039,36.0374 358.0259,38.8394 356.9179,41.9334 C356.2169,43.8604 356.1579,45.5534 356.1579,47.6554 L356.1579,63.9434 Z" id="Fill-20" fill="#898C8D"></path>
                    <path d="M405.0788,43.2188 C403.8528,38.7228 400.7588,36.0368 396.0888,36.0368 C388.9078,36.0368 385.9308,42.5758 385.9308,48.8808 C385.9308,55.2448 388.8498,61.6088 396.0888,61.6088 C401.2838,61.6088 404.5538,58.5138 405.3708,53.4928 L409.1068,53.4928 C407.8818,60.2068 403.6778,64.7608 396.0888,64.7608 C386.4558,64.7608 382.1938,57.8138 382.1938,48.8808 C382.1938,40.4748 387.0398,32.8848 396.0888,32.8848 C403.0358,32.8848 407.5898,36.2128 408.6408,43.2188 L405.0788,43.2188 Z" id="Fill-22" fill="#898C8D"></path>
                    <path d="M436.5437,46.7217 C436.5437,40.8257 433.2747,36.0367 426.9697,36.0367 C420.7817,36.0367 417.5127,40.9997 416.8117,46.7217 L436.5437,46.7217 Z M416.8117,49.6407 C416.7537,56.1787 420.2557,61.6087 426.9697,61.6087 C431.5227,61.6087 435.0847,59.0977 436.1357,54.6607 L440.0467,54.6607 C438.2957,60.3817 434.6757,64.7607 426.9697,64.7607 C417.2787,64.7607 413.0747,57.8717 413.0747,48.9397 C413.0747,40.1237 418.3297,32.8847 426.9697,32.8847 C435.2597,32.8847 440.3387,38.7817 440.2797,49.6407 L416.8117,49.6407 Z" id="Fill-24" fill="#898C8D"></path>
                    <g id="Group-28">
                        <mask id="mask-2" fill="white">
                            <use xlink:href="#path-1"></use>
                        </mask>
                        <g id="Clip-27"></g>
                        <path d="M47.3288,54.834 L30.2568,54.834 L30.3358,32.26 L38.7918,23.723 L47.3288,32.25 L47.3288,54.834 Z M38.8048,10.054 L20.0138,28.821 L20.1068,54.834 L10.6228,54.834 L10.6228,32.26 L35.8058,7.065 L28.7508,0 L-0.0002,28.655 L-0.0002,63.938 L57.5728,63.938 L57.5788,28.679 L38.8048,10.054 Z" id="Fill-26" fill="#898C8D" mask="url(#mask-2)"></path>
                    </g>
                </g>
            </g>
        </g>
    </g>
</svg>