<?xml version="1.0" encoding="UTF-8"?>
<svg width="383px" height="76px" viewBox="0 0 383 76" version="1.1" xmlns="http://www.w3.org/2000/svg" xmlns:xlink="http://www.w3.org/1999/xlink">
    <title>true-respect</title>
    <defs>
        <polygon id="path-1" points="-5.68434189e-14 0 27.789 0 27.789 42.9687 -5.68434189e-14 42.9687"></polygon>
        <polygon id="path-3" points="0 0 57.5788 0 57.5788 63.938 0 63.938"></polygon>
    </defs>
    <g id="Page-1" stroke="none" stroke-width="1" fill="none" fill-rule="evenodd">
        <g id="Artboard" transform="translate(-46.000000, -436.000000)">
            <g id="true-respect" transform="translate(46.000000, 436.000000)">
                <polygon id="Fill-1" fill="#FEFEFE" points="68.3034 22.0064 102.3394 22.0064 102.3394 27.0274 88.1524 27.0274 88.1524 63.9234 82.4904 63.9234 82.4904 27.0274 68.3034 27.0274"></polygon>
                <g id="Group-26">
                    <path d="M104.3225,63.9239 L99.1845,63.9239 L99.1845,33.3909 L104.0305,33.3909 L104.0305,38.4699 L104.1475,38.4699 C106.1905,34.9079 108.8765,32.5149 112.7295,32.5149 C113.3715,32.5149 113.6635,32.5729 114.0725,32.6899 L114.0725,38.0029 L112.1455,38.0029 C107.3585,38.0029 104.3225,41.7389 104.3225,46.1759 L104.3225,63.9239 Z" id="Fill-2" fill="#FEFEFE"></path>
                    <path d="M137.2468,63.9239 L137.2468,59.4869 L137.1298,59.3699 C134.9698,62.9319 132.3428,64.7999 127.4388,64.7999 C122.9438,64.7999 117.5148,62.6399 117.5148,55.3419 L117.5148,33.3909 L122.6518,33.3909 L122.6518,53.6489 C122.6518,58.6699 125.2208,60.3629 128.5488,60.3629 C135.0288,60.3629 136.9548,54.6419 136.9548,50.2039 L136.9548,33.3909 L142.0928,33.3909 L142.0928,63.9239 L137.2468,63.9239 Z" id="Fill-4" fill="#FEFEFE"></path>
                    <path d="M169.3542,46.2344 C169.0622,41.5054 167.0772,37.1274 160.8312,37.1274 C156.1022,37.1274 152.3652,41.5054 152.3652,46.2344 L169.3542,46.2344 Z M174.2582,54.3494 C174.0832,55.8084 172.6822,60.1294 168.8292,62.6984 C167.4282,63.6314 165.4422,64.7994 160.5392,64.7994 C151.9572,64.7994 146.8782,58.3194 146.8782,49.5044 C146.8782,40.0464 151.4312,32.5144 161.5312,32.5144 C170.3472,32.5144 174.6662,39.5204 174.6662,50.3214 L152.3652,50.3214 C152.3652,56.6844 155.3432,60.3634 161.2392,60.3634 C166.0852,60.3634 168.9452,56.6274 169.1212,54.3494 L174.2582,54.3494 Z" id="Fill-6" fill="#FEFEFE"></path>
                    <path d="M196.5573,41.4473 C202.4533,41.4473 207.0073,38.9953 207.0073,33.0983 C207.0073,26.7933 202.1033,25.2763 196.7903,25.2763 L184.1813,25.2763 L184.1813,41.4473 L196.5573,41.4473 Z M184.1813,44.8333 L184.1813,63.9243 L180.2113,63.9243 L180.2113,21.8893 L196.6743,21.8893 C205.8983,21.8893 210.9773,25.1583 210.9773,32.9233 C210.9773,38.2363 208.9923,41.0393 204.1473,43.1983 C209.1093,44.8913 209.4013,50.1453 209.5173,54.5833 C209.6933,60.9463 210.2183,62.6983 211.2693,63.5153 L211.2693,63.9243 L206.8903,63.9243 C205.2553,61.0633 205.6643,53.1813 205.0223,49.9703 C204.0883,45.4173 200.6443,44.8333 196.6743,44.8333 L184.1813,44.8333 Z" id="Fill-8" fill="#2F7DC0"></path>
                    <path d="M239.114,46.7012 C239.114,40.8052 235.844,36.0172 229.54,36.0172 C223.351,36.0172 220.082,40.9802 219.382,46.7012 L239.114,46.7012 Z M219.382,49.6202 C219.323,56.1592 222.826,61.5892 229.54,61.5892 C234.093,61.5892 237.654,59.0782 238.705,54.6412 L242.617,54.6412 C240.865,60.3632 237.246,64.7412 229.54,64.7412 C219.848,64.7412 215.645,57.8522 215.645,48.9202 C215.645,40.1042 220.899,32.8652 229.54,32.8652 C237.83,32.8652 242.909,38.7622 242.85,49.6202 L219.382,49.6202 Z" id="Fill-10" fill="#2F7DC0"></path>
                    <path d="M250.2624,54.4659 C251.3714,59.6619 254.0574,61.5889 259.3114,61.5889 C264.3904,61.5889 266.7834,58.9029 266.7834,55.9849 C266.7834,47.2269 247.4024,53.4149 247.4024,41.5059 C247.4024,36.4849 251.3134,32.8649 258.0274,32.8649 C264.5664,32.8649 268.8274,35.5509 269.7024,42.3809 L266.1424,42.3809 C265.4994,37.7109 262.3474,36.0179 257.9684,36.0179 C253.5324,36.0179 251.1384,38.1189 251.1384,41.2139 C251.1384,49.4449 270.5204,44.3079 270.5204,55.9259 C270.5204,61.7059 265.3244,64.7409 258.2024,64.7409 C251.0794,64.7409 246.9934,60.1879 246.7014,54.4659 L250.2624,54.4659 Z" id="Fill-12" fill="#2F7DC0"></path>
                    <g id="Group-16" transform="translate(276.356800, 32.864900)">
                        <mask id="mask-2" fill="white">
                            <use xlink:href="#path-1"></use>
                        </mask>
                        <g id="Clip-15"></g>
                        <path d="M13.72,28.724 C20.958,28.724 24.345,22.593 24.053,15.004 C23.994,7.414 19.616,3.153 13.72,3.153 C7.122,3.153 3.503,8.757 3.503,16.055 C3.503,22.885 7.356,28.724 13.72,28.724 L13.72,28.724 Z M3.503,42.969 L-5.68434189e-14,42.969 L-5.68434189e-14,0.818 L3.503,0.818 L3.503,6.13 L3.619,6.13 C5.663,2.161 10.275,0 14.128,0 C23.877,0 27.789,6.948 27.789,15.88 C27.789,24.345 23.528,31.876 14.303,31.876 C10.041,31.876 5.722,29.892 3.503,26.213 L3.503,42.969 Z" id="Fill-14" fill="#2F7DC0" mask="url(#mask-2)"></path>
                    </g>
                    <path d="M332.0495,46.7012 C332.0495,40.8052 328.7795,36.0172 322.4755,36.0172 C316.2865,36.0172 313.0175,40.9802 312.3175,46.7012 L332.0495,46.7012 Z M312.3175,49.6202 C312.2585,56.1592 315.7615,61.5892 322.4755,61.5892 C327.0285,61.5892 330.5895,59.0782 331.6405,54.6412 L335.5525,54.6412 C333.8005,60.3632 330.1815,64.7412 322.4755,64.7412 C312.7835,64.7412 308.5805,57.8522 308.5805,48.9202 C308.5805,40.1042 313.8345,32.8652 322.4755,32.8652 C330.7655,32.8652 335.8445,38.7622 335.7855,49.6202 L312.3175,49.6202 Z" id="Fill-17" fill="#2F7DC0"></path>
                    <path d="M362.5807,43.1983 C361.3537,38.7033 358.2607,36.0173 353.5897,36.0173 C346.4087,36.0173 343.4317,42.5563 343.4317,48.8613 C343.4317,55.2243 346.3517,61.5893 353.5897,61.5893 C358.7857,61.5893 362.0557,58.4953 362.8727,53.4733 L366.6087,53.4733 C365.3827,60.1873 361.1797,64.7413 353.5897,64.7413 C343.9567,64.7413 339.6947,57.7943 339.6947,48.8613 C339.6947,40.4553 344.5407,32.8653 353.5897,32.8653 C360.5367,32.8653 365.0907,36.1933 366.1417,43.1983 L362.5807,43.1983 Z" id="Fill-19" fill="#2F7DC0"></path>
                    <path d="M382.779,64.0411 C381.962,64.2161 380.443,64.7411 378.751,64.7411 C375.306,64.7411 373.38,63.2241 373.38,58.7291 L373.38,36.6021 L369.118,36.6021 L369.118,33.6831 L373.38,33.6831 L373.38,25.2761 L376.883,25.2761 L376.883,33.6831 L382.546,33.6831 L382.546,36.6021 L376.883,36.6021 L376.883,57.3271 C376.883,60.3051 376.999,61.5891 379.918,61.5891 C380.852,61.5891 381.844,61.4141 382.779,61.1811 L382.779,64.0411 Z" id="Fill-21" fill="#2F7DC0"></path>
                    <g id="Group-25">
                        <mask id="mask-4" fill="white">
                            <use xlink:href="#path-3"></use>
                        </mask>
                        <g id="Clip-24"></g>
                        <path d="M47.3288,54.834 L30.2568,54.834 L30.3358,32.26 L38.7918,23.723 L47.3288,32.25 L47.3288,54.834 Z M38.8048,10.054 L20.0138,28.821 L20.1068,54.834 L10.6228,54.834 L10.6228,32.26 L35.8058,7.065 L28.7508,0 L-0.0002,28.655 L-0.0002,63.938 L57.5728,63.938 L57.5788,28.679 L38.8048,10.054 Z" id="Fill-23" fill="#2F7DC0" mask="url(#mask-4)"></path>
                    </g>
                </g>
            </g>
        </g>
    </g>
</svg>