<?xml version="1.0" encoding="UTF-8"?>
<svg width="294px" height="76px" viewBox="0 0 294 76" version="1.1" xmlns="http://www.w3.org/2000/svg" xmlns:xlink="http://www.w3.org/1999/xlink">
    <title>true-style</title>
    <defs>
        <polygon id="path-1" points="2.84217094e-14 0 27.089 0 27.089 42.1503 2.84217094e-14 42.1503"></polygon>
        <polygon id="path-3" points="0 75.798 293.579 75.798 293.579 0 0 0"></polygon>
    </defs>
    <g id="Page-1" stroke="none" stroke-width="1" fill="none" fill-rule="evenodd">
        <g id="Artboard" transform="translate(-46.000000, -940.000000)">
            <g id="true-style" transform="translate(46.000000, 940.000000)">
                <polygon id="Fill-1" fill="#FEFEFE" points="68.3038 21.9712 102.3388 21.9712 102.3388 26.9922 88.1528 26.9922 88.1528 63.8882 82.4908 63.8882 82.4908 26.9922 68.3038 26.9922"></polygon>
                <g id="Group-19">
                    <path d="M104.3223,63.8882 L99.1843,63.8882 L99.1843,33.3552 L104.0303,33.3552 L104.0303,38.4342 L104.1473,38.4342 C106.1903,34.8732 108.8763,32.4792 112.7293,32.4792 C113.3713,32.4792 113.6633,32.5382 114.0723,32.6552 L114.0723,37.9672 L112.1453,37.9672 C107.3583,37.9672 104.3223,41.7032 104.3223,46.1412 L104.3223,63.8882 Z" id="Fill-2" fill="#FEFEFE"></path>
                    <path d="M137.2471,63.8882 L137.2471,59.4512 L137.1301,59.3342 C134.9701,62.8962 132.3431,64.7642 127.4391,64.7642 C122.9441,64.7642 117.5151,62.6042 117.5151,55.3062 L117.5151,33.3552 L122.6521,33.3552 L122.6521,53.6142 C122.6521,58.6342 125.2211,60.3272 128.5491,60.3272 C135.0281,60.3272 136.9551,54.6062 136.9551,50.1692 L136.9551,33.3552 L142.0931,33.3552 L142.0931,63.8882 L137.2471,63.8882 Z" id="Fill-4" fill="#FEFEFE"></path>
                    <path d="M169.3541,46.1998 C169.0621,41.4708 167.0771,37.0918 160.8311,37.0918 C156.1011,37.0918 152.3651,41.4708 152.3651,46.1998 L169.3541,46.1998 Z M174.2571,54.3138 C174.0831,55.7738 172.6811,60.0938 168.8291,62.6628 C167.4271,63.5958 165.4421,64.7638 160.5391,64.7638 C151.9571,64.7638 146.8781,58.2838 146.8781,49.4688 C146.8781,40.0118 151.4311,32.4798 161.5311,32.4798 C170.3461,32.4798 174.6661,39.4858 174.6661,50.2858 L152.3651,50.2858 C152.3651,56.6488 155.3421,60.3278 161.2391,60.3278 C166.0841,60.3278 168.9451,56.5918 169.1211,54.3138 L174.2571,54.3138 Z" id="Fill-6" fill="#FEFEFE"></path>
                    <path d="M181.9039,51.3365 C182.5459,58.8675 187.5669,61.6115 193.9889,61.6115 C201.5189,61.6115 204.6729,57.5245 204.6729,52.9125 C204.6729,39.8945 179.0439,48.5345 179.0439,32.0125 C179.0439,26.1745 183.8879,20.7455 193.2879,20.7455 C202.7459,20.7455 207.4739,26.4665 207.4159,33.2965 L203.6219,33.2965 C203.6219,26.8755 198.6589,24.1315 193.2879,24.1315 C185.2309,24.1315 182.3119,29.0935 183.0129,33.4135 C184.8229,44.2735 208.6419,36.4495 208.6419,52.7375 C208.6419,60.4435 202.9789,64.9975 193.2879,64.9975 C184.5309,64.9975 178.0499,60.4435 178.0499,51.3365 L181.9039,51.3365 Z" id="Fill-8" fill="#ECC41B"></path>
                    <path d="M224.5777,64.0054 C223.7607,64.1804 222.2417,64.7054 220.5497,64.7054 C217.1047,64.7054 215.1787,63.1884 215.1787,58.6934 L215.1787,36.5664 L210.9167,36.5664 L210.9167,33.6474 L215.1787,33.6474 L215.1787,25.2404 L218.6817,25.2404 L218.6817,33.6474 L224.3447,33.6474 L224.3447,36.5664 L218.6817,36.5664 L218.6817,57.2914 C218.6817,60.2694 218.7977,61.5534 221.7167,61.5534 C222.6507,61.5534 223.6427,61.3784 224.5777,61.1454 L224.5777,64.0054 Z" id="Fill-10" fill="#ECC41B"></path>
                    <g id="Group-14" transform="translate(225.568900, 33.647700)">
                        <mask id="mask-2" fill="white">
                            <use xlink:href="#path-1"></use>
                        </mask>
                        <g id="Clip-13"></g>
                        <path d="M2.919,38.472 C3.854,38.648 4.846,38.823 5.838,38.823 C9.809,38.823 10.392,33.102 11.734,30.474 L2.84217094e-14,0 L3.912,0 L13.603,25.979 L23.294,0 L27.089,0 L15.821,29.832 C12.961,37.421 11.093,42.151 6.247,42.151 C5.021,42.151 3.854,41.975 2.919,41.742 L2.919,38.472 Z" id="Fill-12" fill="#ECC41B" mask="url(#mask-2)"></path>
                    </g>
                    <mask id="mask-4" fill="white">
                        <use xlink:href="#path-3"></use>
                    </mask>
                    <g id="Clip-16"></g>
                    <polygon id="Fill-15" fill="#ECC41B" mask="url(#mask-4)" points="256.976 63.889 260.479 63.889 260.479 21.855 256.976 21.855"></polygon>
                    <path d="M289.8424,46.6666 C289.8424,40.7706 286.5734,35.9826 280.2684,35.9826 C274.0804,35.9826 270.8114,40.9446 270.1104,46.6666 L289.8424,46.6666 Z M270.1104,49.5856 C270.0524,56.1236 273.5544,61.5536 280.2684,61.5536 C284.8214,61.5536 288.3834,59.0426 289.4344,54.6056 L293.3454,54.6056 C291.5944,60.3276 287.9744,64.7056 280.2684,64.7056 C270.5774,64.7056 266.3734,57.8166 266.3734,48.8846 C266.3734,40.0686 271.6284,32.8306 280.2684,32.8306 C288.5584,32.8306 293.6374,38.7266 293.5784,49.5856 L270.1104,49.5856 Z" id="Fill-17" fill="#ECC41B" mask="url(#mask-4)"></path>
                    <path d="M47.3287,54.8345 L30.2567,54.8345 L30.3357,32.2595 L38.7917,23.7225 L47.3287,32.2505 L47.3287,54.8345 Z M38.8057,10.0535 L20.0137,28.8215 L20.1067,54.8345 L10.6227,54.8345 L10.6227,32.2595 L35.8057,7.0655 L28.7507,-0.0005 L-0.0003,28.6555 L-0.0003,63.9385 L57.5727,63.9385 L57.5787,28.6785 L38.8057,10.0535 Z" id="Fill-18" fill="#ECC41B" mask="url(#mask-4)"></path>
                </g>
            </g>
        </g>
    </g>
</svg>